<svg width="26" height="26" viewBox="0 0 26 26" fill="none" xmlns="http://www.w3.org/2000/svg">
<path d="M25.5 8.00004C25.5121 7.91296 25.5121 7.82461 25.5 7.73754V7.63754C25.4785 7.56777 25.4492 7.50067 25.4125 7.43754C25.3963 7.40154 25.3752 7.3679 25.35 7.33754L25.225 7.17504L25.125 7.10004L24.975 6.98754L13.725 0.737537C13.535 0.627826 13.3194 0.570068 13.1 0.570068C12.8806 0.570068 12.665 0.627826 12.475 0.737537L1.225 6.98754L1.1125 7.07504L0.975 7.17504C0.938686 7.21591 0.909145 7.26233 0.8875 7.31254C0.847507 7.34841 0.813718 7.39064 0.7875 7.43754C0.755044 7.49238 0.729834 7.55121 0.7125 7.61254C0.705507 7.65391 0.705507 7.69616 0.7125 7.73754C0.626557 7.81164 0.554587 7.90055 0.5 8.00004V18C0.501622 18.2228 0.562735 18.441 0.677014 18.6322C0.791293 18.8234 0.954588 18.9806 1.15 19.0875L12.4 25.3375C12.4517 25.3677 12.5061 25.3928 12.5625 25.4125H12.6875C12.8929 25.4624 13.1071 25.4624 13.3125 25.4125H13.4375L13.6125 25.3375L24.8625 19.0875C25.0556 18.979 25.2164 18.8211 25.3284 18.63C25.4404 18.4389 25.4996 18.2215 25.5 18V8.00004ZM13 12.8375L4.325 8.00004L7.775 6.10004L16.3125 10.975L13 12.8375ZM13 3.18754L21.675 8.00004L18.875 9.56254L10.3375 4.67504L13 3.18754ZM3 10.125L11.75 15.025V22.125L3 17.2625V10.125ZM14.25 22.125V15.025L18 12.925V16.75L20.5 15.5V11.525L23 10.1375V17.2625L14.25 22.125Z" fill="#98F3FD"/>
</svg>
