<svg width="21" height="21" viewBox="0 0 21 21" fill="none" xmlns="http://www.w3.org/2000/svg">
<path d="M20.1343 10.2812C20.1343 9.51206 19.5108 8.88854 18.7416 8.88854H11.7784V1.92525C11.7784 1.15611 11.1548 0.532593 10.3857 0.532593C9.61655 0.532593 8.99304 1.15611 8.99304 1.92525V8.88854H2.02974C1.2606 8.88854 0.637085 9.51206 0.637085 10.2812C0.637085 11.0503 1.2606 11.6739 2.02974 11.6739H8.99304V18.6371C8.99304 19.4063 9.61655 20.0298 10.3857 20.0298C11.1548 20.0298 11.7784 19.4063 11.7784 18.6371V11.6739H18.7416C19.5108 11.6739 20.1343 11.0503 20.1343 10.2812Z" fill="white"/>
</svg>
